<mxfile host="app.diagrams.net" agent="Mozilla/5.0 (Macintosh; Intel Mac OS X 10_15_7) AppleWebKit/537.36 (KHTML, like Gecko) Chrome/130.0.0.0 Safari/537.36" version="24.7.17">
  <diagram name="Page-1" id="YhZUdBl12vAHRs5TuMdv">
    <mxGraphModel dx="1137" dy="1778" grid="1" gridSize="10" guides="1" tooltips="1" connect="1" arrows="1" fold="1" page="1" pageScale="1" pageWidth="827" pageHeight="1169" math="0" shadow="0">
      <root>
        <mxCell id="0" />
        <mxCell id="1" parent="0" />
        <mxCell id="MRbespvPZbgsZCBAsZaY-12" style="edgeStyle=orthogonalEdgeStyle;rounded=0;orthogonalLoop=1;jettySize=auto;html=1;exitX=1;exitY=0.5;exitDx=0;exitDy=0;" edge="1" parent="1" source="MRbespvPZbgsZCBAsZaY-6" target="MRbespvPZbgsZCBAsZaY-11">
          <mxGeometry relative="1" as="geometry" />
        </mxCell>
        <mxCell id="MRbespvPZbgsZCBAsZaY-6" value="Event Array File" style="swimlane;whiteSpace=wrap;html=1;" vertex="1" parent="1">
          <mxGeometry x="340" y="230" width="340" height="140" as="geometry" />
        </mxCell>
        <mxCell id="MRbespvPZbgsZCBAsZaY-10" value="&lt;div style=&quot;text-align: justify;&quot;&gt;&lt;span style=&quot;background-color: initial;&quot;&gt;[&lt;/span&gt;&lt;/div&gt;&lt;blockquote style=&quot;margin: 0 0 0 40px; border: none; padding: 0px;&quot;&gt;&lt;div style=&quot;text-align: justify;&quot;&gt;{day: 0, hour: 14, minute: 50, action: 1, attended: 0},&lt;/div&gt;&lt;div style=&quot;text-align: justify;&quot;&gt;{day: 0, hour: 14, minute: 55, action: 0,&amp;nbsp;&lt;span style=&quot;background-color: initial;&quot;&gt;attended: 0&lt;/span&gt;&lt;span style=&quot;background-color: initial;&quot;&gt;},&lt;/span&gt;&lt;/div&gt;&lt;div style=&quot;text-align: justify;&quot;&gt;{day: 0, hour: 14, minute: 55, action: 0,&amp;nbsp;&lt;span style=&quot;background-color: initial;&quot;&gt;attended: 0&lt;/span&gt;&lt;span style=&quot;background-color: initial;&quot;&gt;}&lt;/span&gt;&lt;/div&gt;&lt;/blockquote&gt;&lt;div style=&quot;text-align: justify;&quot;&gt;]&lt;/div&gt;" style="whiteSpace=wrap;html=1;" vertex="1" parent="1">
          <mxGeometry x="350" y="260" width="320" height="100" as="geometry" />
        </mxCell>
        <mxCell id="MRbespvPZbgsZCBAsZaY-11" value="eventArrLoop" style="shape=parallelogram;perimeter=parallelogramPerimeter;whiteSpace=wrap;html=1;fixedSize=1;" vertex="1" parent="1">
          <mxGeometry x="720" y="270" width="150" height="60" as="geometry" />
        </mxCell>
        <mxCell id="MRbespvPZbgsZCBAsZaY-15" style="edgeStyle=orthogonalEdgeStyle;rounded=0;orthogonalLoop=1;jettySize=auto;html=1;exitX=1;exitY=0.5;exitDx=0;exitDy=0;entryX=0;entryY=0.5;entryDx=0;entryDy=0;" edge="1" parent="1" source="MRbespvPZbgsZCBAsZaY-13" target="MRbespvPZbgsZCBAsZaY-6">
          <mxGeometry relative="1" as="geometry" />
        </mxCell>
        <mxCell id="MRbespvPZbgsZCBAsZaY-13" value="localServer" style="shape=parallelogram;perimeter=parallelogramPerimeter;whiteSpace=wrap;html=1;fixedSize=1;" vertex="1" parent="1">
          <mxGeometry x="120" y="230" width="150" height="60" as="geometry" />
        </mxCell>
        <mxCell id="MRbespvPZbgsZCBAsZaY-16" value="telegram" style="shape=parallelogram;perimeter=parallelogramPerimeter;whiteSpace=wrap;html=1;fixedSize=1;" vertex="1" parent="1">
          <mxGeometry x="110" y="330" width="150" height="60" as="geometry" />
        </mxCell>
        <mxCell id="MRbespvPZbgsZCBAsZaY-17" style="edgeStyle=orthogonalEdgeStyle;rounded=0;orthogonalLoop=1;jettySize=auto;html=1;exitX=1;exitY=0.5;exitDx=0;exitDy=0;entryX=0;entryY=0.4;entryDx=0;entryDy=0;entryPerimeter=0;" edge="1" parent="1" source="MRbespvPZbgsZCBAsZaY-16" target="MRbespvPZbgsZCBAsZaY-10">
          <mxGeometry relative="1" as="geometry" />
        </mxCell>
        <mxCell id="MRbespvPZbgsZCBAsZaY-36" style="edgeStyle=orthogonalEdgeStyle;rounded=0;orthogonalLoop=1;jettySize=auto;html=1;exitX=0.5;exitY=1;exitDx=0;exitDy=0;entryX=0.5;entryY=0;entryDx=0;entryDy=0;" edge="1" parent="1" source="MRbespvPZbgsZCBAsZaY-18" target="MRbespvPZbgsZCBAsZaY-35">
          <mxGeometry relative="1" as="geometry" />
        </mxCell>
        <mxCell id="MRbespvPZbgsZCBAsZaY-18" value="eventArrLoop" style="shape=parallelogram;perimeter=parallelogramPerimeter;whiteSpace=wrap;html=1;fixedSize=1;" vertex="1" parent="1">
          <mxGeometry x="1040" y="270" width="160" height="60" as="geometry" />
        </mxCell>
        <mxCell id="MRbespvPZbgsZCBAsZaY-25" style="edgeStyle=orthogonalEdgeStyle;rounded=0;orthogonalLoop=1;jettySize=auto;html=1;exitX=0.5;exitY=1;exitDx=0;exitDy=0;entryX=0.5;entryY=0;entryDx=0;entryDy=0;" edge="1" parent="1" source="MRbespvPZbgsZCBAsZaY-19" target="MRbespvPZbgsZCBAsZaY-20">
          <mxGeometry relative="1" as="geometry" />
        </mxCell>
        <mxCell id="MRbespvPZbgsZCBAsZaY-19" value="check each eventArr element" style="rounded=0;whiteSpace=wrap;html=1;" vertex="1" parent="1">
          <mxGeometry x="1040" y="450" width="160" height="60" as="geometry" />
        </mxCell>
        <mxCell id="MRbespvPZbgsZCBAsZaY-26" style="edgeStyle=orthogonalEdgeStyle;rounded=0;orthogonalLoop=1;jettySize=auto;html=1;exitX=1;exitY=0.5;exitDx=0;exitDy=0;entryX=0;entryY=0.5;entryDx=0;entryDy=0;" edge="1" parent="1" source="MRbespvPZbgsZCBAsZaY-20" target="MRbespvPZbgsZCBAsZaY-21">
          <mxGeometry relative="1" as="geometry" />
        </mxCell>
        <mxCell id="MRbespvPZbgsZCBAsZaY-30" style="edgeStyle=orthogonalEdgeStyle;rounded=0;orthogonalLoop=1;jettySize=auto;html=1;exitX=0.5;exitY=1;exitDx=0;exitDy=0;entryX=0.5;entryY=0;entryDx=0;entryDy=0;" edge="1" parent="1" source="MRbespvPZbgsZCBAsZaY-20" target="MRbespvPZbgsZCBAsZaY-23">
          <mxGeometry relative="1" as="geometry" />
        </mxCell>
        <mxCell id="MRbespvPZbgsZCBAsZaY-20" value="currTime &amp;gt; eventTime?" style="rhombus;whiteSpace=wrap;html=1;" vertex="1" parent="1">
          <mxGeometry x="1040" y="560" width="160" height="110" as="geometry" />
        </mxCell>
        <mxCell id="MRbespvPZbgsZCBAsZaY-27" style="edgeStyle=orthogonalEdgeStyle;rounded=0;orthogonalLoop=1;jettySize=auto;html=1;exitX=0.5;exitY=1;exitDx=0;exitDy=0;entryX=0.5;entryY=0;entryDx=0;entryDy=0;" edge="1" parent="1" source="MRbespvPZbgsZCBAsZaY-21" target="MRbespvPZbgsZCBAsZaY-22">
          <mxGeometry relative="1" as="geometry" />
        </mxCell>
        <mxCell id="MRbespvPZbgsZCBAsZaY-21" value="execute action" style="rounded=0;whiteSpace=wrap;html=1;" vertex="1" parent="1">
          <mxGeometry x="1260" y="585" width="160" height="60" as="geometry" />
        </mxCell>
        <mxCell id="MRbespvPZbgsZCBAsZaY-28" style="edgeStyle=orthogonalEdgeStyle;rounded=0;orthogonalLoop=1;jettySize=auto;html=1;exitX=0;exitY=0.5;exitDx=0;exitDy=0;entryX=0.5;entryY=0;entryDx=0;entryDy=0;" edge="1" parent="1" source="MRbespvPZbgsZCBAsZaY-22" target="MRbespvPZbgsZCBAsZaY-23">
          <mxGeometry relative="1" as="geometry" />
        </mxCell>
        <mxCell id="MRbespvPZbgsZCBAsZaY-22" value="mark as attended" style="rounded=0;whiteSpace=wrap;html=1;" vertex="1" parent="1">
          <mxGeometry x="1260" y="680" width="160" height="60" as="geometry" />
        </mxCell>
        <mxCell id="MRbespvPZbgsZCBAsZaY-31" style="edgeStyle=orthogonalEdgeStyle;rounded=0;orthogonalLoop=1;jettySize=auto;html=1;exitX=1;exitY=0.5;exitDx=0;exitDy=0;" edge="1" parent="1" source="MRbespvPZbgsZCBAsZaY-23" target="MRbespvPZbgsZCBAsZaY-24">
          <mxGeometry relative="1" as="geometry" />
        </mxCell>
        <mxCell id="MRbespvPZbgsZCBAsZaY-23" value="currTime&amp;nbsp;&lt;div&gt;==&lt;/div&gt;&lt;div&gt;monday midnight?&lt;/div&gt;" style="rhombus;whiteSpace=wrap;html=1;" vertex="1" parent="1">
          <mxGeometry x="1040" y="800" width="160" height="120" as="geometry" />
        </mxCell>
        <mxCell id="MRbespvPZbgsZCBAsZaY-33" style="edgeStyle=orthogonalEdgeStyle;rounded=0;orthogonalLoop=1;jettySize=auto;html=1;exitX=0.5;exitY=1;exitDx=0;exitDy=0;entryX=0.5;entryY=0;entryDx=0;entryDy=0;" edge="1" parent="1" source="MRbespvPZbgsZCBAsZaY-24" target="MRbespvPZbgsZCBAsZaY-32">
          <mxGeometry relative="1" as="geometry" />
        </mxCell>
        <mxCell id="MRbespvPZbgsZCBAsZaY-24" value="mark all events as unattended" style="rounded=0;whiteSpace=wrap;html=1;" vertex="1" parent="1">
          <mxGeometry x="1260" y="830" width="160" height="60" as="geometry" />
        </mxCell>
        <mxCell id="MRbespvPZbgsZCBAsZaY-32" value="end" style="shape=parallelogram;perimeter=parallelogramPerimeter;whiteSpace=wrap;html=1;fixedSize=1;" vertex="1" parent="1">
          <mxGeometry x="1040" y="950" width="160" height="60" as="geometry" />
        </mxCell>
        <mxCell id="MRbespvPZbgsZCBAsZaY-37" style="edgeStyle=orthogonalEdgeStyle;rounded=0;orthogonalLoop=1;jettySize=auto;html=1;exitX=0.5;exitY=1;exitDx=0;exitDy=0;entryX=0.5;entryY=0;entryDx=0;entryDy=0;" edge="1" parent="1" source="MRbespvPZbgsZCBAsZaY-35" target="MRbespvPZbgsZCBAsZaY-19">
          <mxGeometry relative="1" as="geometry" />
        </mxCell>
        <mxCell id="MRbespvPZbgsZCBAsZaY-35" value="read eventArr file" style="rounded=0;whiteSpace=wrap;html=1;" vertex="1" parent="1">
          <mxGeometry x="1040" y="360" width="160" height="60" as="geometry" />
        </mxCell>
        <mxCell id="MRbespvPZbgsZCBAsZaY-38" value="ToDo" style="swimlane;fontStyle=0;childLayout=stackLayout;horizontal=1;startSize=30;horizontalStack=0;resizeParent=1;resizeParentMax=0;resizeLast=0;collapsible=1;marginBottom=0;whiteSpace=wrap;html=1;" vertex="1" parent="1">
          <mxGeometry x="680" y="-120" width="140" height="120" as="geometry" />
        </mxCell>
        <mxCell id="MRbespvPZbgsZCBAsZaY-39" value="filesystem" style="text;strokeColor=none;fillColor=none;align=left;verticalAlign=middle;spacingLeft=4;spacingRight=4;overflow=hidden;points=[[0,0.5],[1,0.5]];portConstraint=eastwest;rotatable=0;whiteSpace=wrap;html=1;" vertex="1" parent="MRbespvPZbgsZCBAsZaY-38">
          <mxGeometry y="30" width="140" height="30" as="geometry" />
        </mxCell>
        <mxCell id="MRbespvPZbgsZCBAsZaY-40" value="JSON" style="text;strokeColor=none;fillColor=none;align=left;verticalAlign=middle;spacingLeft=4;spacingRight=4;overflow=hidden;points=[[0,0.5],[1,0.5]];portConstraint=eastwest;rotatable=0;whiteSpace=wrap;html=1;" vertex="1" parent="MRbespvPZbgsZCBAsZaY-38">
          <mxGeometry y="60" width="140" height="30" as="geometry" />
        </mxCell>
        <mxCell id="MRbespvPZbgsZCBAsZaY-41" value="How to work with datetime formats" style="text;strokeColor=none;fillColor=none;align=left;verticalAlign=middle;spacingLeft=4;spacingRight=4;overflow=hidden;points=[[0,0.5],[1,0.5]];portConstraint=eastwest;rotatable=0;whiteSpace=wrap;html=1;" vertex="1" parent="MRbespvPZbgsZCBAsZaY-38">
          <mxGeometry y="90" width="140" height="30" as="geometry" />
        </mxCell>
      </root>
    </mxGraphModel>
  </diagram>
</mxfile>
